<?xml version="1.0" encoding="UTF-8" standalone="no"?>
<!-- Generator: Adobe Illustrator 26.0.2, SVG Export Plug-In . SVG Version: 6.00 Build 0)  -->

<svg
   version="1.1"
   id="Layer_1"
   x="0px"
   y="0px"
   viewBox="0 0 442.10001 135.3"
   xml:space="preserve"
   sodipodi:docname="logo.svg"
   width="442.10001"
   height="135.3"
   inkscape:version="1.1.1 (c3084ef, 2021-09-22)"
   xmlns:inkscape="http://www.inkscape.org/namespaces/inkscape"
   xmlns:sodipodi="http://sodipodi.sourceforge.net/DTD/sodipodi-0.dtd"
   xmlns="http://www.w3.org/2000/svg"
   xmlns:svg="http://www.w3.org/2000/svg"><defs
   id="defs120" /><sodipodi:namedview
   id="namedview118"
   pagecolor="#ffffff"
   bordercolor="#666666"
   borderopacity="1.0"
   inkscape:pageshadow="2"
   inkscape:pageopacity="0.0"
   inkscape:pagecheckerboard="0"
   showgrid="false"
   width="427.09999px"
   fit-margin-top="0"
   fit-margin-left="0"
   fit-margin-right="0"
   fit-margin-bottom="0"
   inkscape:zoom="1.8926174"
   inkscape:cx="81.897163"
   inkscape:cy="143.71631"
   inkscape:window-width="1296"
   inkscape:window-height="786"
   inkscape:window-x="0"
   inkscape:window-y="25"
   inkscape:window-maximized="0"
   inkscape:current-layer="Layer_1" />
<style
   type="text/css"
   id="style2">
	.st0{fill:#FFFFFF;}
	.st1{fill:#FFFFFF;stroke:#5490CC;stroke-width:2;}
</style>

<g
   id="g180"
   transform="translate(-84.1,-88.6)"><g
     id="radial">
	<g
   id="g8">
		<polyline
   class="st0"
   points="129.7,146.6 135.8,144.4 135.9,144.4   "
   id="polyline4" />
		<path
   class="st0"
   d="m 136.3,145.3 -0.5,0.2 -5.6,2 c -0.2,-0.3 -0.3,-0.6 -0.4,-0.9 -0.1,-0.3 -0.2,-0.6 -0.3,-1 l 6.2,-2.2 0.3,0.9 v 0 0 z"
   id="path6" />
	</g>
	<g
   id="g14">
		<polyline
   class="st0"
   points="170.3,121.3 170.3,121.3 169.9,125.9   "
   id="polyline10" />
		<path
   class="st0"
   d="m 171.3,121.4 v 0.3 l -0.4,4.1 c -0.2,0 -0.4,0 -0.5,0 -0.2,0 -0.3,0 -0.5,0 -0.3,0 -0.7,-0.1 -1,-0.2 l 0.4,-4.4 1,0.1 v 0 z"
   id="path12" />
	</g>
	<g
   id="g20">
		<line
   class="st0"
   x1="172.39999"
   y1="117.3"
   x2="170.3"
   y2="121.3"
   id="line16" />
		<path
   class="st0"
   d="m 173.2,117.9 -1.9,3.8 v 0.1 l -0.9,-0.4 v 0 l -0.9,-0.4 2,-3.9 c 0.3,0.1 0.6,0.2 0.9,0.4 0.3,0 0.6,0.2 0.8,0.4 z"
   id="path18" />
	</g>
	<g
   id="g26">
		<polyline
   class="st0"
   points="135.9,144.4 135.9,144.4 135.9,144.4 141.1,148.4   "
   id="polyline22" />
		<path
   class="st0"
   d="m 141.7,147.6 c -0.2,0.3 -0.3,0.6 -0.6,0.8 -0.2,0.3 -0.4,0.5 -0.7,0.8 l -4.7,-3.7 -0.5,-0.4 0.6,-0.7 0.1,-0.1 v 0 l 0.6,-0.8 z"
   id="path24" />
	</g>
	<g
   id="g32">
		<polyline
   class="st0"
   points="143.2,191.6 143.1,196.1 143.1,196.1   "
   id="polyline28" />
		<path
   class="st0"
   d="m 144.2,191.7 -0.1,4.4 h -1 v 0 h -1 v 0 l 0.1,-4.4 c 0.3,-0.1 0.6,-0.1 1,-0.1 v 0 c 0.3,0 0.6,0 1,0.1 z"
   id="path30" />
	</g>
	<path
   class="st1"
   d="M 152.3,156.5"
   id="path34" />
	<path
   class="st1"
   d="M 152.3,157.2"
   id="path36" />
	<path
   class="st1"
   d="M 172.4,162"
   id="path38" />
	<path
   class="st1"
   d="M 131.8,161.2"
   id="path40" />
	<g
   id="g46">
		<line
   class="st0"
   x1="101.1"
   y1="151.7"
   x2="92.599998"
   y2="150.8"
   id="line42" />
		<path
   class="st0"
   d="m 101.1,150.7 v 0.1 c 0,0.3 0,0.6 0,0.9 0,0.3 -0.1,0.7 -0.2,1 l -8.4,-0.9 0.1,-1 0.1,-1 z"
   id="path44" />
	</g>
	<g
   id="g50">
		<line
   class="st0"
   x1="114.7"
   y1="171.39999"
   x2="114.7"
   y2="171.39999"
   id="line48" />
	</g>
	<g
   id="g56">
		<line
   class="st0"
   x1="143.10001"
   y1="196.10001"
   x2="142.10001"
   y2="200.5"
   id="line52" />
		<path
   class="st0"
   d="m 144.1,196.4 -1,4.3 c -0.3,0 -0.7,0 -1,-0.1 -0.3,-0.1 -0.6,-0.2 -0.9,-0.3 l 0.9,-4.1 0.1,-0.2 0.9,0.2 v 0 z"
   id="path54" />
	</g>
	<g
   id="g62">
		<line
   class="st0"
   x1="192.2"
   y1="201.5"
   x2="186.5"
   y2="195.2"
   id="line58" />
		<path
   class="st0"
   d="m 192.9,200.8 -0.7,0.7 -0.8,0.7 -5.6,-6.2 c 0.2,-0.2 0.4,-0.5 0.7,-0.7 0.2,-0.2 0.5,-0.4 0.8,-0.6 z"
   id="path60" />
	</g>
	<path
   class="st1"
   d="M 179.3,103.5"
   id="path64" />
	<path
   class="st1"
   d="M 124.1,103.7"
   id="path66" />
	<path
   class="st1"
   d="M 119.1,134.5"
   id="path68" />
	<path
   class="st1"
   d="M 143.6,176"
   id="path70" />
	<path
   class="st1"
   d="M 126.2,186.9"
   id="path72" />
	<path
   class="st0"
   d="m 158.7,136.5 c 0,3.6 -2.9,6.6 -6.6,6.6 -3.6,0 -6.6,-2.9 -6.6,-6.6 0,-3.6 3,-6.6 6.6,-6.6 3.7,0 6.6,2.9 6.6,6.6 z"
   id="path74" />
	<path
   class="st0"
   d="m 174.9,121.4 c 0,2.3 -1.7,4.2 -4,4.5 -0.2,0 -0.4,0 -0.5,0 -0.2,0 -0.3,0 -0.5,0 -0.3,0 -0.7,-0.1 -1,-0.2 v 0 c -1.8,-0.6 -3.1,-2.3 -3.1,-4.3 0,-2.5 2,-4.5 4.5,-4.5 0.4,0 0.8,0.1 1.1,0.1 0.3,0.1 0.6,0.2 0.9,0.4 0.3,0.2 0.6,0.3 0.8,0.6 1.1,0.7 1.8,2 1.8,3.4 z"
   id="path76" />
	<path
   class="st0"
   d="m 220,149.8 c 0,4.7 -3.8,8.5 -8.5,8.5 -4.7,0 -8.5,-3.8 -8.5,-8.5 0,-3.3 1.8,-6.1 4.5,-7.5 L 203.2,131 c -0.7,0.2 -1.4,0.3 -2.1,0.3 -2.5,0 -4.8,-1.1 -6.4,-2.9 l -5.7,4 v 0 c 0.2,0.5 0.4,1.1 0.4,1.8 0,2.5 -2,4.5 -4.5,4.5 -2.5,0 -4.5,-2 -4.5,-4.5 0,-2.5 2,-4.5 4.5,-4.5 1.1,0 2.2,0.4 3,1.1 l 5.7,-4 c -0.6,-1.2 -1,-2.5 -1,-4 0,-4.7 3.8,-8.5 8.5,-8.5 4.7,0 8.5,3.8 8.5,8.5 0,3.3 -1.8,6.1 -4.6,7.5 l 4.3,11.3 c 0.7,-0.2 1.4,-0.3 2.1,-0.3 4.8,0 8.6,3.8 8.6,8.5 z"
   id="path78" />
	<path
   class="st0"
   d="m 196.4,152.2 c 0,2.5 -2,4.5 -4.5,4.5 -2.5,0 -4.5,-2 -4.5,-4.5 0,-2.5 2,-4.5 4.5,-4.5 2.5,-0.1 4.5,2 4.5,4.5 z"
   id="path80" />
	<path
   class="st0"
   d="m 216.9,177.5 c 0,4.7 -3.8,8.5 -8.5,8.5 -4.7,0 -8.5,-3.8 -8.5,-8.5 0,-0.7 0.1,-1.3 0.2,-1.9 l -6.5,-2.4 c -0.8,1.2 -2.2,2.1 -3.8,2.1 -2.5,0 -4.5,-2 -4.5,-4.5 0,-2.5 2,-4.5 4.5,-4.5 2.5,0 4.5,2 4.5,4.5 0,0.2 0,0.4 0,0.6 l 6.5,2.4 c 1.4,-2.8 4.3,-4.7 7.6,-4.7 4.7,0 8.5,3.8 8.5,8.4 z"
   id="path82" />
	<path
   class="st0"
   d="m 147.6,196.1 c 0,2.5 -2,4.5 -4.5,4.5 v 0 c -0.3,0 -0.7,0 -1,-0.1 -0.3,-0.1 -0.6,-0.2 -0.9,-0.3 -1.5,-0.7 -2.6,-2.3 -2.6,-4.1 0,-2.2 1.5,-4 3.6,-4.4 0.3,-0.1 0.6,-0.1 1,-0.1 v 0 c 0.4,0 0.7,0 1,0.1 2,0.5 3.4,2.3 3.4,4.4 z"
   id="path84" />
	<path
   class="st0"
   d="m 130.4,187.3 c 0,2.5 -2,4.5 -4.5,4.5 -2.5,0 -4.5,-2 -4.5,-4.5 0,-2.5 2,-4.5 4.5,-4.5 2.5,0 4.5,2 4.5,4.5 z"
   id="path86" />
	<path
   class="st0"
   d="m 119.2,171.4 c 0,2.5 -2,4.5 -4.5,4.5 -1.6,0 -2.9,-0.8 -3.8,-2 l -6.5,2.5 c 0.2,0.7 0.3,1.4 0.3,2.1 0,4.7 -3.8,8.5 -8.5,8.5 -4.7,0 -8.5,-3.8 -8.5,-8.5 0,-4.7 3.8,-8.5 8.5,-8.5 3.3,0 6.1,1.8 7.5,4.5 l 6.5,-2.5 c 0,-0.2 -0.1,-0.4 -0.1,-0.6 0,-2.5 2,-4.5 4.5,-4.5 2.5,0 4.6,2 4.6,4.5 z"
   id="path88" />
	<path
   class="st0"
   d="m 116.8,152.3 c 0,0.2 0,0.4 0,0.6 0,2.5 -2,4.5 -4.5,4.5 -2.3,0 -4.2,-1.8 -4.5,-4 l -6.9,-0.7 c 0.1,-0.3 0.1,-0.7 0.2,-1 0,-0.3 0,-0.6 0,-0.9 v -0.1 l 6.9,0.7 c 0.6,-1.8 2.3,-3.1 4.3,-3.1 1.6,0 3,0.8 3.8,2.1 l 13.4,-4.8 c 0.1,0.3 0.1,0.7 0.3,1 0.1,0.3 0.2,0.6 0.4,0.9 z"
   id="path90" />
	<path
   class="st0"
   d="m 137.9,121.7 c 0,2.5 -2,4.5 -4.5,4.5 -1,0 -1.9,-0.3 -2.6,-0.8 l -7.9,7.1 c 0.4,0.6 0.6,1.4 0.6,2.2 0,2.5 -2,4.5 -4.5,4.5 -2.5,0 -4.5,-2 -4.5,-4.5 0,-0.6 0.1,-1.1 0.3,-1.6 l -5.8,-3.9 c -1.6,1.8 -3.9,2.9 -6.4,2.9 -4.7,0 -8.5,-3.8 -8.5,-8.5 0,-4.7 3.8,-8.5 8.5,-8.5 4.7,0 8.5,3.8 8.5,8.5 0,1.4 -0.3,2.7 -0.9,3.9 l 5.8,3.9 v 0 c 0.8,-0.8 1.9,-1.2 3.1,-1.2 1,0 1.9,0.3 2.6,0.8 l 7.8,-7.1 c -0.4,-0.7 -0.6,-1.4 -0.6,-2.2 0,-2.5 2,-4.5 4.5,-4.5 2.5,0 4.5,2 4.5,4.5 z"
   id="path92" />
	<path
   class="st0"
   d="m 153.1,105.7 v 6.9 c 2.1,0.4 3.6,2.2 3.6,4.4 0,2.5 -2,4.5 -4.5,4.5 -2.5,0 -4.5,-2 -4.5,-4.5 0,-2.1 1.5,-3.9 3.5,-4.4 v -7 c -3.2,-0.4 -5.8,-2.6 -6.9,-5.5 l -11.7,2.9 c 0.1,0.4 0.1,0.7 0.1,1.1 0,4.7 -3.8,8.5 -8.5,8.5 -4.7,0 -8.5,-3.8 -8.5,-8.5 0,-4.7 3.8,-8.5 8.5,-8.5 3.6,0 6.7,2.2 7.9,5.4 l 11.8,-2.9 c 0,-0.3 -0.1,-0.7 -0.1,-1 0,-4.7 3.8,-8.5 8.5,-8.5 4.7,0 8.5,3.8 8.5,8.5 -0.2,4.5 -3.5,8.1 -7.7,8.6 z"
   id="path94" />
	<path
   class="st0"
   d="m 187.8,103.7 c 0,4.7 -3.8,8.5 -8.5,8.5 -1,0 -2,-0.2 -2.9,-0.5 l -3.2,6.2 c -0.3,-0.2 -0.5,-0.4 -0.8,-0.6 -0.3,-0.2 -0.6,-0.3 -0.9,-0.4 l 3.1,-6.2 c -2.3,-1.5 -3.8,-4.1 -3.8,-7.1 0,-4.7 3.8,-8.5 8.5,-8.5 4.7,0 8.5,3.9 8.5,8.6 z"
   id="path96" />
	<path
   class="st0"
   d="m 200.7,201.5 c 0,4.7 -3.8,8.5 -8.5,8.5 -4.7,0 -8.5,-3.8 -8.5,-8.5 0,-2.1 0.8,-4.1 2.1,-5.6 0.2,-0.2 0.4,-0.5 0.7,-0.7 0.2,-0.2 0.5,-0.4 0.8,-0.6 1.4,-1 3.1,-1.5 4.9,-1.5 4.7,0 8.5,3.8 8.5,8.4 z"
   id="path98" />
	<path
   class="st0"
   d="m 175.1,215.1 c 0,4.7 -3.8,8.5 -8.5,8.5 -4.7,0 -8.5,-3.8 -8.5,-8.5 0,-3.6 2.3,-6.7 5.5,-7.9 l -1.7,-6.7 h -0.1 c -2.5,0 -4.5,-2 -4.5,-4.5 0,-2.5 2,-4.5 4.5,-4.5 2.5,0 4.5,2 4.5,4.5 0,1.8 -1,3.3 -2.5,4 l 1.7,6.7 c 0.4,-0.1 0.7,-0.1 1.1,-0.1 4.7,0.1 8.5,3.9 8.5,8.5 z"
   id="path100" />
	<path
   class="st0"
   d="m 147.2,215.4 c 0,4.7 -3.8,8.5 -8.5,8.5 -4.7,0 -8.5,-3.8 -8.5,-8.5 0,-4.7 3.8,-8.5 8.5,-8.5 0.3,0 0.6,0 0.9,0 l 1.6,-6.8 c 0.3,0.1 0.6,0.3 0.9,0.3 0.3,0.1 0.7,0.1 1,0.1 l -1.6,6.8 c 3.3,1.3 5.7,4.4 5.7,8.1 z"
   id="path102" />
	<path
   class="st0"
   d="m 121.3,202.2 c 0,4.7 -3.8,8.5 -8.5,8.5 -4.7,0 -8.5,-3.8 -8.5,-8.5 0,-4.7 3.8,-8.5 8.5,-8.5 4.8,0.1 8.5,3.9 8.5,8.5 z"
   id="path104" />
	<path
   class="st0"
   d="m 101.1,150.7 v 0.1 c 0,0.3 0,0.6 0,0.9 0,0.3 -0.1,0.7 -0.2,1 -0.8,3.8 -4.2,6.6 -8.3,6.6 -4.7,0 -8.5,-3.8 -8.5,-8.5 0,-4.7 3.8,-8.5 8.5,-8.5 4.7,0 8.4,3.8 8.5,8.4 z"
   id="path106" />
	<path
   class="st0"
   d="m 178.9,161.4 c 0,3.6 -2.9,6.6 -6.6,6.6 -3.6,0 -6.6,-3 -6.6,-6.6 0,-3.6 3,-6.6 6.6,-6.6 3.6,0 6.6,2.9 6.6,6.6 z"
   id="path108" />
	<path
   class="st0"
   d="m 187.3,194.6 c -0.3,0.2 -0.5,0.4 -0.8,0.6 -0.2,0.2 -0.5,0.5 -0.7,0.7 l -4.7,-5.1 c -0.6,0.4 -1.4,0.6 -2.2,0.6 -2.5,0 -4.5,-2 -4.5,-4.5 0,-0.5 0.1,-1.1 0.3,-1.5 l -8.6,-5.4 c -1.2,1.4 -3,2.3 -5,2.3 -3.6,0 -6.6,-2.9 -6.6,-6.6 0,-2.2 1.1,-4.2 2.8,-5.4 v 0 l -4.6,-9.4 c -0.2,0 -0.4,0.1 -0.6,0.1 -1.4,0 -2.7,-0.8 -3.3,-2 l -10.2,2.3 c 0,0.2 0,0.3 0,0.5 0,1.7 -0.6,3.3 -1.7,4.4 l 3.2,3.9 c 1,-0.6 2.1,-0.9 3.3,-0.9 3.6,0 6.6,2.9 6.6,6.6 0,3.4 -2.5,6.1 -5.7,6.5 l -0.2,9.4 c -0.3,-0.1 -0.6,-0.1 -1,-0.1 v 0 c -0.3,0 -0.6,0 -1,0.1 l 0.2,-9.4 c -3.1,-0.5 -5.5,-3.2 -5.5,-6.5 0,-1.7 0.6,-3.3 1.7,-4.4 l -3.1,-3.9 c -1,0.6 -2.1,0.9 -3.3,0.9 -3.6,0 -6.6,-3 -6.6,-6.6 0,-3.6 3,-6.6 6.6,-6.6 2.8,0 5.1,1.7 6.1,4.1 l 10.2,-2.3 c 0,-0.4 0.1,-0.9 0.3,-1.3 l -8.2,-6.4 c 0.2,-0.2 0.5,-0.5 0.7,-0.8 0.2,-0.3 0.4,-0.5 0.6,-0.8 l 8.2,6.4 c 0.6,-0.5 1.4,-0.7 2.2,-0.7 0.8,0 1.6,0.3 2.2,0.7 l 8.1,-6.6 c -0.6,-1 -0.9,-2.1 -0.9,-3.3 0,-3.5 2.7,-6.4 6.2,-6.6 l 1.1,-11.9 v 0 c 0.3,0.1 0.6,0.2 1,0.2 0.1,0 0.3,0 0.5,0 0.2,0 0.4,0 0.5,0 l -1.1,11.9 c 2.9,0.7 5,3.3 5,6.4 0,3.6 -2.9,6.6 -6.6,6.6 -1.7,0 -3.3,-0.6 -4.4,-1.7 l -8.1,6.6 c 0.2,0.5 0.3,1 0.3,1.5 0,1.1 -0.5,2.2 -1.3,2.9 l 4.6,9.4 c 0.6,-0.2 1.3,-0.3 2,-0.3 3.6,0 6.6,3 6.6,6.6 0,0.9 -0.2,1.8 -0.6,2.6 l 8.5,5.4 c 0.8,-0.8 1.9,-1.3 3.2,-1.3 2.5,0 4.5,2 4.5,4.5 0,1 -0.3,1.9 -0.8,2.6 z"
   id="path110" />
	<path
   class="st0"
   d="m 142.5,144.4 c 0,1.2 -0.3,2.3 -0.8,3.2 -0.2,0.3 -0.3,0.6 -0.6,0.8 -0.2,0.3 -0.4,0.5 -0.7,0.8 -1.2,1.1 -2.8,1.8 -4.5,1.8 -2.5,0 -4.7,-1.4 -5.8,-3.5 -0.2,-0.3 -0.3,-0.6 -0.4,-0.9 -0.1,-0.3 -0.2,-0.6 -0.3,-1 -0.1,-0.4 -0.1,-0.8 -0.1,-1.2 0,-3.6 2.9,-6.6 6.6,-6.6 3.7,0 6.6,3 6.6,6.6 z"
   id="path112" />
</g><g
     id="letters">
	<path
   id="letters_1_"
   class="st0"
   d="m 512.8,156.9 c 0,18.4 -8.5,31.1 -29.3,31.1 h -10.8 v -62.2 h 10.8 c 20.8,0 29.3,12.7 29.3,31.1 m 13.4,0 c 0,-30.9 -19.2,-43.8 -42.7,-43.8 h -23.9 v 87.7 h 23.9 c 22.9,0 42.7,-12.9 42.7,-43.9 M 441,139.6 c 0,9.5 -6.1,14 -14.9,14 h -25.6 v -28.2 h 25.6 c 8.9,0 14.9,5.1 14.9,14.2 m 13.3,-0.4 c 0,-18 -12.9,-26.2 -28.2,-26.2 h -38.5 v 87.7 h 12.9 V 166 h 19.8 l 17.4,34.7 h 15.2 L 435,164.9 c 11.9,-3 19.3,-11.6 19.3,-25.7 m -85.7,1.3 c 0,9.4 -5,15.2 -15,15.2 H 330 v -30.2 h 23.6 c 9.1,-0.1 15,5.3 15,15 m 13.4,0 c 0,-18.2 -12,-27.4 -28.2,-27.4 h -36.7 v 87.7 H 330 v -32.7 h 22.9 c 17.1,0 29.1,-9.6 29.1,-27.6 m -70,44.8 -10.9,-7.3 c -4.5,7.1 -10.1,10.9 -19.3,10.9 -15.3,0 -23.6,-12.4 -23.6,-32.1 0,-19.7 8.3,-32.1 23.6,-32.1 9,0 13.7,3.4 18.2,10.5 l 11.6,-7.3 c -6,-10.7 -15.5,-16.4 -29.8,-16.4 -22.7,0 -37.1,18.7 -37.1,45.2 0,26.5 14.4,45.2 37.1,45.2 13.2,0.2 23.9,-5.8 30.2,-16.6" />
</g></g>
</svg>
